<svg viewBox="0 0 256 256" xmlns="http://www.w3.org/2000/svg" xml:space="preserve" style="fill-rule:evenodd;clip-rule:evenodd;stroke-linejoin:round;stroke-miterlimit:2"><path d="M248 68c0-33.115-26.885-60-60-60H68C34.885 8 8 34.885 8 68v120c0 33.115 26.885 60 60 60h120c33.115 0 60-26.885 60-60V68Zm-105.931 45.489a4144.928 4144.928 0 0 1 8.887-17.668 671.918 671.918 0 0 0 8.04-16.398c2.398-5.078 4.444-9.627 6.136-13.647 1.693-4.02 2.68-7.229 2.963-9.627.282-2.539.07-4.726-.635-6.56a9.424 9.424 0 0 0-3.491-4.443c-1.623-1.128-3.527-2.01-5.713-2.645-2.187-.635-4.62-1.023-7.3-1.164-4.655-.282-10.192-.176-16.61.318-6.418.494-12.589 1.41-18.514 2.75-5.924 1.341-11.038 3.21-15.34 5.608-4.302 2.398-6.594 5.36-6.877 8.886-.141 1.975.212 3.738 1.058 5.29.706 1.27 2.01 2.469 3.915 3.597 1.904 1.128 4.76 1.552 8.569 1.27.705 0 1.552-.071 2.539-.212l3.174-.529a58.164 58.164 0 0 0 4.443-.952l-10.368 13.965c-1.974 2.821-4.09 4.514-6.347 5.078-2.257.564-4.302.705-6.136.423-.988-.141-2.927-.635-5.819-1.481-2.892-.847-5.783-2.116-8.675-3.809-2.892-1.692-5.396-3.985-7.511-6.876-2.116-2.892-2.963-6.524-2.54-10.897.565-5.078 2.751-9.769 6.56-14.071 3.808-4.302 9.133-8.005 15.975-11.108 6.841-3.104 15.022-5.502 24.544-7.194 9.521-1.693 20.277-2.539 32.267-2.539 9.028 0 16.222.952 21.582 2.856 5.36 1.904 9.275 4.373 11.743 7.406 2.469 3.033 3.668 6.559 3.597 10.579-.07 4.02-.952 8.146-2.644 12.378-.847 1.975-2.081 4.69-3.703 8.146a731.169 731.169 0 0 1-5.819 12.061 671.058 671.058 0 0 0-7.194 15.128 684.032 684.032 0 0 0-7.617 17.139c3.808.282 7.3.635 10.473 1.058 3.174.423 5.678.776 7.512 1.058 2.116.564 2.821 1.481 2.116 2.751-1.27 2.539-2.504 4.443-3.703 5.712-1.199 1.27-2.504 2.152-3.914 2.645-1.411.494-2.963.706-4.655.635-1.693-.07-3.597-.176-5.713-.317-1.27 0-2.539-.036-3.809-.106a92.406 92.406 0 0 1-4.02-.317 971.727 971.727 0 0 0-7.723 18.831 706.867 706.867 0 0 0-6.771 17.668 542.504 542.504 0 0 0-5.395 15.34c-1.552 4.655-2.61 8.534-3.174 11.637-.847 4.373-1.481 8.464-1.904 12.272-.283 3.245-.424 6.63-.424 10.157 0 3.526.565 6.347 1.693 8.463a317.513 317.513 0 0 1-7.723 2.116c-2.186.564-4.055.987-5.607 1.269l-4.232 1.058c-3.949.988-6.735.882-8.358-.317-1.622-1.199-2.08-4.055-1.375-8.569.282-3.104.741-6.595 1.375-10.474.635-3.879 1.623-8.252 2.963-13.118 1.34-4.867 3.103-10.298 5.289-16.293 2.187-5.995 4.973-12.66 8.358-19.995a732.985 732.985 0 0 1 6.771-14.071 1345.121 1345.121 0 0 0 8.04-16.609c-6.206 0-12.907.423-20.101 1.269a286.539 286.539 0 0 0-11.637 1.905 406.332 406.332 0 0 0-10.474 2.433c-3.738.917-7.229 1.939-10.473 3.068a11.708 11.708 0 0 1-.741-3.385 15.616 15.616 0 0 1 .106-3.174c.141-.988.353-1.975.635-2.963.282-.987.705-1.974 1.269-2.962.847-1.693 2.187-3.808 4.021-6.347a333.65 333.65 0 0 1 19.042-1.905c6.066-.423 11.426-.776 16.081-1.058 5.502-.282 10.65-.423 15.446-.423.705-.141 1.305-.176 1.799-.106.493.071 1.093.106 1.798.106Z" style="fill:#ef4444"/></svg>