<svg width="1080" height="2340" xmlns="http://www.w3.org/2000/svg" xml:space="preserve" style="fill-rule:evenodd;clip-rule:evenodd;stroke-linejoin:round;stroke-miterlimit:2"><path style="fill:#fff" d="M0 0h1080v2340H0z"/><path style="fill:none" d="M98.386 204.943h202.413V427.12H98.386z" transform="matrix(.80034 0 0 .9479 -24.743 -77.265)"/><path d="M192 16C86 16 0 198 0 304s85.1 192 192 192c105.1 0 192-85.1 192-192 0-106-86.9-288-192-288Zm-31.9 122C128.6 177.1 96 249.8 96 304c0 8.8-7.16 16-16 16s-16-7.2-16-16c0-63.56 36.7-143.3 71.22-186 5.562-6.906 15.64-7.969 22.5-2.406C164.6 121.1 165.7 131.2 160.1 138Z" style="fill:#ef4444;fill-rule:nonzero" transform="matrix(.3 0 0 .3 77.4 145.5)"/><path style="fill:none" d="M98.386 204.943h202.413V427.12H98.386z" transform="matrix(.80034 0 0 .9479 785.257 343.935)"/><path d="M192 16C86 16 0 198 0 304s85.1 192 192 192c105.1 0 192-85.1 192-192 0-106-86.9-288-192-288Zm-31.9 122C128.6 177.1 96 249.8 96 304c0 8.8-7.16 16-16 16s-16-7.2-16-16c0-63.56 36.7-143.3 71.22-186 5.562-6.906 15.64-7.969 22.5-2.406C164.6 121.1 165.7 131.2 160.1 138Z" style="fill:#ef4444;fill-rule:nonzero" transform="matrix(.3 0 0 .3 887.4 566.7)"/><path style="fill:none" d="M98.386 204.943h202.413V427.12H98.386z" transform="matrix(.80034 0 0 .9479 623.257 554.535)"/><path d="M192 16C86 16 0 198 0 304s85.1 192 192 192c105.1 0 192-85.1 192-192 0-106-86.9-288-192-288Zm-31.9 122C128.6 177.1 96 249.8 96 304c0 8.8-7.16 16-16 16s-16-7.2-16-16c0-63.56 36.7-143.3 71.22-186 5.562-6.906 15.64-7.969 22.5-2.406C164.6 121.1 165.7 131.2 160.1 138Z" style="fill:#ef4444;fill-rule:nonzero" transform="matrix(.3 0 0 .3 725.4 777.3)"/><path style="fill:none" d="M98.386 204.943h202.413V427.12H98.386z" transform="matrix(.80034 0 0 .9479 461.257 765.135)"/><path d="M192 16C86 16 0 198 0 304s85.1 192 192 192c105.1 0 192-85.1 192-192 0-106-86.9-288-192-288Zm-31.9 122C128.6 177.1 96 249.8 96 304c0 8.8-7.16 16-16 16s-16-7.2-16-16c0-63.56 36.7-143.3 71.22-186 5.562-6.906 15.64-7.969 22.5-2.406C164.6 121.1 165.7 131.2 160.1 138Z" style="fill:#ef4444;fill-rule:nonzero" transform="matrix(.3 0 0 .3 563.4 987.9)"/><path style="fill:none" d="M98.386 204.943h202.413V427.12H98.386z" transform="matrix(.80034 0 0 .9479 299.257 975.735)"/><path d="M192 16C86 16 0 198 0 304s85.1 192 192 192c105.1 0 192-85.1 192-192 0-106-86.9-288-192-288Zm-31.9 122C128.6 177.1 96 249.8 96 304c0 8.8-7.16 16-16 16s-16-7.2-16-16c0-63.56 36.7-143.3 71.22-186 5.562-6.906 15.64-7.969 22.5-2.406C164.6 121.1 165.7 131.2 160.1 138Z" style="fill:#ef4444;fill-rule:nonzero" transform="matrix(.3 0 0 .3 401.4 1198.5)"/><path style="fill:none" d="M98.386 204.943h202.413V427.12H98.386z" transform="matrix(.80034 0 0 .9479 137.257 1186.335)"/><path d="M192 16C86 16 0 198 0 304s85.1 192 192 192c105.1 0 192-85.1 192-192 0-106-86.9-288-192-288Zm-31.9 122C128.6 177.1 96 249.8 96 304c0 8.8-7.16 16-16 16s-16-7.2-16-16c0-63.56 36.7-143.3 71.22-186 5.562-6.906 15.64-7.969 22.5-2.406C164.6 121.1 165.7 131.2 160.1 138Z" style="fill:#ef4444;fill-rule:nonzero" transform="matrix(.3 0 0 .3 239.4 1409.1)"/><path style="fill:none" d="M98.386 204.943h202.413V427.12H98.386z" transform="matrix(.80034 0 0 .9479 -24.743 1396.935)"/><path d="M192 16C86 16 0 198 0 304s85.1 192 192 192c105.1 0 192-85.1 192-192 0-106-86.9-288-192-288Zm-31.9 122C128.6 177.1 96 249.8 96 304c0 8.8-7.16 16-16 16s-16-7.2-16-16c0-63.56 36.7-143.3 71.22-186 5.562-6.906 15.64-7.969 22.5-2.406C164.6 121.1 165.7 131.2 160.1 138Z" style="fill:#ef4444;fill-rule:nonzero" transform="matrix(.3 0 0 .3 77.4 1619.7)"/><path style="fill:none" d="M98.386 204.943h202.413V427.12H98.386z" transform="matrix(.80034 0 0 .9479 785.257 1818.135)"/><path d="M192 16C86 16 0 198 0 304s85.1 192 192 192c105.1 0 192-85.1 192-192 0-106-86.9-288-192-288Zm-31.9 122C128.6 177.1 96 249.8 96 304c0 8.8-7.16 16-16 16s-16-7.2-16-16c0-63.56 36.7-143.3 71.22-186 5.562-6.906 15.64-7.969 22.5-2.406C164.6 121.1 165.7 131.2 160.1 138Z" style="fill:#ef4444;fill-rule:nonzero" transform="matrix(.3 0 0 .3 887.4 2040.9)"/><path style="fill:none" d="M98.386 204.943h202.413V427.12H98.386z" transform="matrix(.80034 0 0 .9479 137.257 -77.265)"/><path d="M192 16C86 16 0 198 0 304s85.1 192 192 192c105.1 0 192-85.1 192-192 0-106-86.9-288-192-288Zm-31.9 122C128.6 177.1 96 249.8 96 304c0 8.8-7.16 16-16 16s-16-7.2-16-16c0-63.56 36.7-143.3 71.22-186 5.562-6.906 15.64-7.969 22.5-2.406C164.6 121.1 165.7 131.2 160.1 138Z" style="fill:#f97316;fill-rule:nonzero" transform="matrix(.3 0 0 .3 239.4 145.5)"/><path style="fill:none" d="M98.386 204.943h202.413V427.12H98.386z" transform="matrix(.80034 0 0 .9479 -24.743 133.335)"/><path d="M192 16C86 16 0 198 0 304s85.1 192 192 192c105.1 0 192-85.1 192-192 0-106-86.9-288-192-288Zm-31.9 122C128.6 177.1 96 249.8 96 304c0 8.8-7.16 16-16 16s-16-7.2-16-16c0-63.56 36.7-143.3 71.22-186 5.562-6.906 15.64-7.969 22.5-2.406C164.6 121.1 165.7 131.2 160.1 138Z" style="fill:#f97316;fill-rule:nonzero" transform="matrix(.3 0 0 .3 77.4 356.1)"/><path style="fill:none" d="M98.386 204.943h202.413V427.12H98.386z" transform="matrix(.80034 0 0 .9479 785.257 554.535)"/><path d="M192 16C86 16 0 198 0 304s85.1 192 192 192c105.1 0 192-85.1 192-192 0-106-86.9-288-192-288Zm-31.9 122C128.6 177.1 96 249.8 96 304c0 8.8-7.16 16-16 16s-16-7.2-16-16c0-63.56 36.7-143.3 71.22-186 5.562-6.906 15.64-7.969 22.5-2.406C164.6 121.1 165.7 131.2 160.1 138Z" style="fill:#f97316;fill-rule:nonzero" transform="matrix(.3 0 0 .3 887.4 777.3)"/><path style="fill:none" d="M98.386 204.943h202.413V427.12H98.386z" transform="matrix(.80034 0 0 .9479 623.257 765.135)"/><path d="M192 16C86 16 0 198 0 304s85.1 192 192 192c105.1 0 192-85.1 192-192 0-106-86.9-288-192-288Zm-31.9 122C128.6 177.1 96 249.8 96 304c0 8.8-7.16 16-16 16s-16-7.2-16-16c0-63.56 36.7-143.3 71.22-186 5.562-6.906 15.64-7.969 22.5-2.406C164.6 121.1 165.7 131.2 160.1 138Z" style="fill:#f97316;fill-rule:nonzero" transform="matrix(.3 0 0 .3 725.4 987.9)"/><path style="fill:none" d="M98.386 204.943h202.413V427.12H98.386z" transform="matrix(.80034 0 0 .9479 461.257 975.735)"/><path d="M192 16C86 16 0 198 0 304s85.1 192 192 192c105.1 0 192-85.1 192-192 0-106-86.9-288-192-288Zm-31.9 122C128.6 177.1 96 249.8 96 304c0 8.8-7.16 16-16 16s-16-7.2-16-16c0-63.56 36.7-143.3 71.22-186 5.562-6.906 15.64-7.969 22.5-2.406C164.6 121.1 165.7 131.2 160.1 138Z" style="fill:#f97316;fill-rule:nonzero" transform="matrix(.3 0 0 .3 563.4 1198.5)"/><path style="fill:none" d="M98.386 204.943h202.413V427.12H98.386z" transform="matrix(.80034 0 0 .9479 299.257 1186.335)"/><path d="M192 16C86 16 0 198 0 304s85.1 192 192 192c105.1 0 192-85.1 192-192 0-106-86.9-288-192-288Zm-31.9 122C128.6 177.1 96 249.8 96 304c0 8.8-7.16 16-16 16s-16-7.2-16-16c0-63.56 36.7-143.3 71.22-186 5.562-6.906 15.64-7.969 22.5-2.406C164.6 121.1 165.7 131.2 160.1 138Z" style="fill:#f97316;fill-rule:nonzero" transform="matrix(.3 0 0 .3 401.4 1409.1)"/><path style="fill:none" d="M98.386 204.943h202.413V427.12H98.386z" transform="matrix(.80034 0 0 .9479 137.257 1396.935)"/><path d="M192 16C86 16 0 198 0 304s85.1 192 192 192c105.1 0 192-85.1 192-192 0-106-86.9-288-192-288Zm-31.9 122C128.6 177.1 96 249.8 96 304c0 8.8-7.16 16-16 16s-16-7.2-16-16c0-63.56 36.7-143.3 71.22-186 5.562-6.906 15.64-7.969 22.5-2.406C164.6 121.1 165.7 131.2 160.1 138Z" style="fill:#f97316;fill-rule:nonzero" transform="matrix(.3 0 0 .3 239.4 1619.7)"/><path style="fill:none" d="M98.386 204.943h202.413V427.12H98.386z" transform="matrix(.80034 0 0 .9479 -24.743 1607.535)"/><path d="M192 16C86 16 0 198 0 304s85.1 192 192 192c105.1 0 192-85.1 192-192 0-106-86.9-288-192-288Zm-31.9 122C128.6 177.1 96 249.8 96 304c0 8.8-7.16 16-16 16s-16-7.2-16-16c0-63.56 36.7-143.3 71.22-186 5.562-6.906 15.64-7.969 22.5-2.406C164.6 121.1 165.7 131.2 160.1 138Z" style="fill:#f97316;fill-rule:nonzero" transform="matrix(.3 0 0 .3 77.4 1830.3)"/><path style="fill:none" d="M98.386 204.943h202.413V427.12H98.386z" transform="matrix(.80034 0 0 .9479 299.257 -77.265)"/><path d="M192 16C86 16 0 198 0 304s85.1 192 192 192c105.1 0 192-85.1 192-192 0-106-86.9-288-192-288Zm-31.9 122C128.6 177.1 96 249.8 96 304c0 8.8-7.16 16-16 16s-16-7.2-16-16c0-63.56 36.7-143.3 71.22-186 5.562-6.906 15.64-7.969 22.5-2.406C164.6 121.1 165.7 131.2 160.1 138Z" style="fill:#facc15;fill-rule:nonzero" transform="matrix(.3 0 0 .3 401.4 145.5)"/><path style="fill:none" d="M98.386 204.943h202.413V427.12H98.386z" transform="matrix(.80034 0 0 .9479 137.257 133.335)"/><path d="M192 16C86 16 0 198 0 304s85.1 192 192 192c105.1 0 192-85.1 192-192 0-106-86.9-288-192-288Zm-31.9 122C128.6 177.1 96 249.8 96 304c0 8.8-7.16 16-16 16s-16-7.2-16-16c0-63.56 36.7-143.3 71.22-186 5.562-6.906 15.64-7.969 22.5-2.406C164.6 121.1 165.7 131.2 160.1 138Z" style="fill:#facc15;fill-rule:nonzero" transform="matrix(.3 0 0 .3 239.4 356.1)"/><path style="fill:none" d="M98.386 204.943h202.413V427.12H98.386z" transform="matrix(.80034 0 0 .9479 -24.743 343.935)"/><path d="M192 16C86 16 0 198 0 304s85.1 192 192 192c105.1 0 192-85.1 192-192 0-106-86.9-288-192-288Zm-31.9 122C128.6 177.1 96 249.8 96 304c0 8.8-7.16 16-16 16s-16-7.2-16-16c0-63.56 36.7-143.3 71.22-186 5.562-6.906 15.64-7.969 22.5-2.406C164.6 121.1 165.7 131.2 160.1 138Z" style="fill:#facc15;fill-rule:nonzero" transform="matrix(.3 0 0 .3 77.4 566.7)"/><path style="fill:none" d="M98.386 204.943h202.413V427.12H98.386z" transform="matrix(.80034 0 0 .9479 785.257 765.135)"/><path d="M192 16C86 16 0 198 0 304s85.1 192 192 192c105.1 0 192-85.1 192-192 0-106-86.9-288-192-288Zm-31.9 122C128.6 177.1 96 249.8 96 304c0 8.8-7.16 16-16 16s-16-7.2-16-16c0-63.56 36.7-143.3 71.22-186 5.562-6.906 15.64-7.969 22.5-2.406C164.6 121.1 165.7 131.2 160.1 138Z" style="fill:#facc15;fill-rule:nonzero" transform="matrix(.3 0 0 .3 887.4 987.9)"/><path style="fill:none" d="M98.386 204.943h202.413V427.12H98.386z" transform="matrix(.80034 0 0 .9479 623.257 975.735)"/><path d="M192 16C86 16 0 198 0 304s85.1 192 192 192c105.1 0 192-85.1 192-192 0-106-86.9-288-192-288Zm-31.9 122C128.6 177.1 96 249.8 96 304c0 8.8-7.16 16-16 16s-16-7.2-16-16c0-63.56 36.7-143.3 71.22-186 5.562-6.906 15.64-7.969 22.5-2.406C164.6 121.1 165.7 131.2 160.1 138Z" style="fill:#facc15;fill-rule:nonzero" transform="matrix(.3 0 0 .3 725.4 1198.5)"/><path style="fill:none" d="M98.386 204.943h202.413V427.12H98.386z" transform="matrix(.80034 0 0 .9479 461.257 1186.335)"/><path d="M192 16C86 16 0 198 0 304s85.1 192 192 192c105.1 0 192-85.1 192-192 0-106-86.9-288-192-288Zm-31.9 122C128.6 177.1 96 249.8 96 304c0 8.8-7.16 16-16 16s-16-7.2-16-16c0-63.56 36.7-143.3 71.22-186 5.562-6.906 15.64-7.969 22.5-2.406C164.6 121.1 165.7 131.2 160.1 138Z" style="fill:#facc15;fill-rule:nonzero" transform="matrix(.3 0 0 .3 563.4 1409.1)"/><path style="fill:none" d="M98.386 204.943h202.413V427.12H98.386z" transform="matrix(.80034 0 0 .9479 299.257 1396.935)"/><path d="M192 16C86 16 0 198 0 304s85.1 192 192 192c105.1 0 192-85.1 192-192 0-106-86.9-288-192-288Zm-31.9 122C128.6 177.1 96 249.8 96 304c0 8.8-7.16 16-16 16s-16-7.2-16-16c0-63.56 36.7-143.3 71.22-186 5.562-6.906 15.64-7.969 22.5-2.406C164.6 121.1 165.7 131.2 160.1 138Z" style="fill:#facc15;fill-rule:nonzero" transform="matrix(.3 0 0 .3 401.4 1619.7)"/><path style="fill:none" d="M98.386 204.943h202.413V427.12H98.386z" transform="matrix(.80034 0 0 .9479 137.257 1607.535)"/><path d="M192 16C86 16 0 198 0 304s85.1 192 192 192c105.1 0 192-85.1 192-192 0-106-86.9-288-192-288Zm-31.9 122C128.6 177.1 96 249.8 96 304c0 8.8-7.16 16-16 16s-16-7.2-16-16c0-63.56 36.7-143.3 71.22-186 5.562-6.906 15.64-7.969 22.5-2.406C164.6 121.1 165.7 131.2 160.1 138Z" style="fill:#facc15;fill-rule:nonzero" transform="matrix(.3 0 0 .3 239.4 1830.3)"/><path style="fill:none" d="M98.386 204.943h202.413V427.12H98.386z" transform="matrix(.80034 0 0 .9479 -24.743 1818.135)"/><path d="M192 16C86 16 0 198 0 304s85.1 192 192 192c105.1 0 192-85.1 192-192 0-106-86.9-288-192-288Zm-31.9 122C128.6 177.1 96 249.8 96 304c0 8.8-7.16 16-16 16s-16-7.2-16-16c0-63.56 36.7-143.3 71.22-186 5.562-6.906 15.64-7.969 22.5-2.406C164.6 121.1 165.7 131.2 160.1 138Z" style="fill:#facc15;fill-rule:nonzero" transform="matrix(.3 0 0 .3 77.4 2040.9)"/><path style="fill:none" d="M98.386 204.943h202.413V427.12H98.386z" transform="matrix(.80034 0 0 .9479 461.257 -77.265)"/><path d="M192 16C86 16 0 198 0 304s85.1 192 192 192c105.1 0 192-85.1 192-192 0-106-86.9-288-192-288Zm-31.9 122C128.6 177.1 96 249.8 96 304c0 8.8-7.16 16-16 16s-16-7.2-16-16c0-63.56 36.7-143.3 71.22-186 5.562-6.906 15.64-7.969 22.5-2.406C164.6 121.1 165.7 131.2 160.1 138Z" style="fill:#22c55e;fill-rule:nonzero" transform="matrix(.3 0 0 .3 563.4 145.5)"/><path style="fill:none" d="M98.386 204.943h202.413V427.12H98.386z" transform="matrix(.80034 0 0 .9479 299.257 133.335)"/><path d="M192 16C86 16 0 198 0 304s85.1 192 192 192c105.1 0 192-85.1 192-192 0-106-86.9-288-192-288Zm-31.9 122C128.6 177.1 96 249.8 96 304c0 8.8-7.16 16-16 16s-16-7.2-16-16c0-63.56 36.7-143.3 71.22-186 5.562-6.906 15.64-7.969 22.5-2.406C164.6 121.1 165.7 131.2 160.1 138Z" style="fill:#22c55e;fill-rule:nonzero" transform="matrix(.3 0 0 .3 401.4 356.1)"/><path style="fill:none" d="M98.386 204.943h202.413V427.12H98.386z" transform="matrix(.80034 0 0 .9479 137.257 343.935)"/><path d="M192 16C86 16 0 198 0 304s85.1 192 192 192c105.1 0 192-85.1 192-192 0-106-86.9-288-192-288Zm-31.9 122C128.6 177.1 96 249.8 96 304c0 8.8-7.16 16-16 16s-16-7.2-16-16c0-63.56 36.7-143.3 71.22-186 5.562-6.906 15.64-7.969 22.5-2.406C164.6 121.1 165.7 131.2 160.1 138Z" style="fill:#22c55e;fill-rule:nonzero" transform="matrix(.3 0 0 .3 239.4 566.7)"/><path style="fill:none" d="M98.386 204.943h202.413V427.12H98.386z" transform="matrix(.80034 0 0 .9479 -24.743 554.535)"/><path d="M192 16C86 16 0 198 0 304s85.1 192 192 192c105.1 0 192-85.1 192-192 0-106-86.9-288-192-288Zm-31.9 122C128.6 177.1 96 249.8 96 304c0 8.8-7.16 16-16 16s-16-7.2-16-16c0-63.56 36.7-143.3 71.22-186 5.562-6.906 15.64-7.969 22.5-2.406C164.6 121.1 165.7 131.2 160.1 138Z" style="fill:#22c55e;fill-rule:nonzero" transform="matrix(.3 0 0 .3 77.4 777.3)"/><path style="fill:none" d="M98.386 204.943h202.413V427.12H98.386z" transform="matrix(.80034 0 0 .9479 785.257 975.735)"/><path d="M192 16C86 16 0 198 0 304s85.1 192 192 192c105.1 0 192-85.1 192-192 0-106-86.9-288-192-288Zm-31.9 122C128.6 177.1 96 249.8 96 304c0 8.8-7.16 16-16 16s-16-7.2-16-16c0-63.56 36.7-143.3 71.22-186 5.562-6.906 15.64-7.969 22.5-2.406C164.6 121.1 165.7 131.2 160.1 138Z" style="fill:#22c55e;fill-rule:nonzero" transform="matrix(.3 0 0 .3 887.4 1198.5)"/><path style="fill:none" d="M98.386 204.943h202.413V427.12H98.386z" transform="matrix(.80034 0 0 .9479 623.257 1186.335)"/><path d="M192 16C86 16 0 198 0 304s85.1 192 192 192c105.1 0 192-85.1 192-192 0-106-86.9-288-192-288Zm-31.9 122C128.6 177.1 96 249.8 96 304c0 8.8-7.16 16-16 16s-16-7.2-16-16c0-63.56 36.7-143.3 71.22-186 5.562-6.906 15.64-7.969 22.5-2.406C164.6 121.1 165.7 131.2 160.1 138Z" style="fill:#22c55e;fill-rule:nonzero" transform="matrix(.3 0 0 .3 725.4 1409.1)"/><path style="fill:none" d="M98.386 204.943h202.413V427.12H98.386z" transform="matrix(.80034 0 0 .9479 461.257 1396.935)"/><path d="M192 16C86 16 0 198 0 304s85.1 192 192 192c105.1 0 192-85.1 192-192 0-106-86.9-288-192-288Zm-31.9 122C128.6 177.1 96 249.8 96 304c0 8.8-7.16 16-16 16s-16-7.2-16-16c0-63.56 36.7-143.3 71.22-186 5.562-6.906 15.64-7.969 22.5-2.406C164.6 121.1 165.7 131.2 160.1 138Z" style="fill:#22c55e;fill-rule:nonzero" transform="matrix(.3 0 0 .3 563.4 1619.7)"/><path style="fill:none" d="M98.386 204.943h202.413V427.12H98.386z" transform="matrix(.80034 0 0 .9479 299.257 1607.535)"/><path d="M192 16C86 16 0 198 0 304s85.1 192 192 192c105.1 0 192-85.1 192-192 0-106-86.9-288-192-288Zm-31.9 122C128.6 177.1 96 249.8 96 304c0 8.8-7.16 16-16 16s-16-7.2-16-16c0-63.56 36.7-143.3 71.22-186 5.562-6.906 15.64-7.969 22.5-2.406C164.6 121.1 165.7 131.2 160.1 138Z" style="fill:#22c55e;fill-rule:nonzero" transform="matrix(.3 0 0 .3 401.4 1830.3)"/><path style="fill:none" d="M98.386 204.943h202.413V427.12H98.386z" transform="matrix(.80034 0 0 .9479 137.257 1818.135)"/><path d="M192 16C86 16 0 198 0 304s85.1 192 192 192c105.1 0 192-85.1 192-192 0-106-86.9-288-192-288Zm-31.9 122C128.6 177.1 96 249.8 96 304c0 8.8-7.16 16-16 16s-16-7.2-16-16c0-63.56 36.7-143.3 71.22-186 5.562-6.906 15.64-7.969 22.5-2.406C164.6 121.1 165.7 131.2 160.1 138Z" style="fill:#22c55e;fill-rule:nonzero" transform="matrix(.3 0 0 .3 239.4 2040.9)"/><path style="fill:none" d="M98.386 204.943h202.413V427.12H98.386z" transform="matrix(.80034 0 0 .9479 623.257 -77.265)"/><path d="M192 16C86 16 0 198 0 304s85.1 192 192 192c105.1 0 192-85.1 192-192 0-106-86.9-288-192-288Zm-31.9 122C128.6 177.1 96 249.8 96 304c0 8.8-7.16 16-16 16s-16-7.2-16-16c0-63.56 36.7-143.3 71.22-186 5.562-6.906 15.64-7.969 22.5-2.406C164.6 121.1 165.7 131.2 160.1 138Z" style="fill:#3b82f6;fill-rule:nonzero" transform="matrix(.3 0 0 .3 725.4 145.5)"/><path style="fill:none" d="M98.386 204.943h202.413V427.12H98.386z" transform="matrix(.80034 0 0 .9479 461.257 133.335)"/><path d="M192 16C86 16 0 198 0 304s85.1 192 192 192c105.1 0 192-85.1 192-192 0-106-86.9-288-192-288Zm-31.9 122C128.6 177.1 96 249.8 96 304c0 8.8-7.16 16-16 16s-16-7.2-16-16c0-63.56 36.7-143.3 71.22-186 5.562-6.906 15.64-7.969 22.5-2.406C164.6 121.1 165.7 131.2 160.1 138Z" style="fill:#3b82f6;fill-rule:nonzero" transform="matrix(.3 0 0 .3 563.4 356.1)"/><path style="fill:none" d="M98.386 204.943h202.413V427.12H98.386z" transform="matrix(.80034 0 0 .9479 299.257 343.935)"/><path d="M192 16C86 16 0 198 0 304s85.1 192 192 192c105.1 0 192-85.1 192-192 0-106-86.9-288-192-288Zm-31.9 122C128.6 177.1 96 249.8 96 304c0 8.8-7.16 16-16 16s-16-7.2-16-16c0-63.56 36.7-143.3 71.22-186 5.562-6.906 15.64-7.969 22.5-2.406C164.6 121.1 165.7 131.2 160.1 138Z" style="fill:#3b82f6;fill-rule:nonzero" transform="matrix(.3 0 0 .3 401.4 566.7)"/><path style="fill:none" d="M98.386 204.943h202.413V427.12H98.386z" transform="matrix(.80034 0 0 .9479 137.257 554.535)"/><path d="M192 16C86 16 0 198 0 304s85.1 192 192 192c105.1 0 192-85.1 192-192 0-106-86.9-288-192-288Zm-31.9 122C128.6 177.1 96 249.8 96 304c0 8.8-7.16 16-16 16s-16-7.2-16-16c0-63.56 36.7-143.3 71.22-186 5.562-6.906 15.64-7.969 22.5-2.406C164.6 121.1 165.7 131.2 160.1 138Z" style="fill:#3b82f6;fill-rule:nonzero" transform="matrix(.3 0 0 .3 239.4 777.3)"/><path style="fill:none" d="M98.386 204.943h202.413V427.12H98.386z" transform="matrix(.80034 0 0 .9479 -24.743 765.135)"/><path d="M192 16C86 16 0 198 0 304s85.1 192 192 192c105.1 0 192-85.1 192-192 0-106-86.9-288-192-288Zm-31.9 122C128.6 177.1 96 249.8 96 304c0 8.8-7.16 16-16 16s-16-7.2-16-16c0-63.56 36.7-143.3 71.22-186 5.562-6.906 15.64-7.969 22.5-2.406C164.6 121.1 165.7 131.2 160.1 138Z" style="fill:#3b82f6;fill-rule:nonzero" transform="matrix(.3 0 0 .3 77.4 987.9)"/><path style="fill:none" d="M98.386 204.943h202.413V427.12H98.386z" transform="matrix(.80034 0 0 .9479 785.257 1186.335)"/><path d="M192 16C86 16 0 198 0 304s85.1 192 192 192c105.1 0 192-85.1 192-192 0-106-86.9-288-192-288Zm-31.9 122C128.6 177.1 96 249.8 96 304c0 8.8-7.16 16-16 16s-16-7.2-16-16c0-63.56 36.7-143.3 71.22-186 5.562-6.906 15.64-7.969 22.5-2.406C164.6 121.1 165.7 131.2 160.1 138Z" style="fill:#3b82f6;fill-rule:nonzero" transform="matrix(.3 0 0 .3 887.4 1409.1)"/><path style="fill:none" d="M98.386 204.943h202.413V427.12H98.386z" transform="matrix(.80034 0 0 .9479 623.257 1396.935)"/><path d="M192 16C86 16 0 198 0 304s85.1 192 192 192c105.1 0 192-85.1 192-192 0-106-86.9-288-192-288Zm-31.9 122C128.6 177.1 96 249.8 96 304c0 8.8-7.16 16-16 16s-16-7.2-16-16c0-63.56 36.7-143.3 71.22-186 5.562-6.906 15.64-7.969 22.5-2.406C164.6 121.1 165.7 131.2 160.1 138Z" style="fill:#3b82f6;fill-rule:nonzero" transform="matrix(.3 0 0 .3 725.4 1619.7)"/><path style="fill:none" d="M98.386 204.943h202.413V427.12H98.386z" transform="matrix(.80034 0 0 .9479 461.257 1607.535)"/><path d="M192 16C86 16 0 198 0 304s85.1 192 192 192c105.1 0 192-85.1 192-192 0-106-86.9-288-192-288Zm-31.9 122C128.6 177.1 96 249.8 96 304c0 8.8-7.16 16-16 16s-16-7.2-16-16c0-63.56 36.7-143.3 71.22-186 5.562-6.906 15.64-7.969 22.5-2.406C164.6 121.1 165.7 131.2 160.1 138Z" style="fill:#3b82f6;fill-rule:nonzero" transform="matrix(.3 0 0 .3 563.4 1830.3)"/><path style="fill:none" d="M98.386 204.943h202.413V427.12H98.386z" transform="matrix(.80034 0 0 .9479 299.257 1818.135)"/><path d="M192 16C86 16 0 198 0 304s85.1 192 192 192c105.1 0 192-85.1 192-192 0-106-86.9-288-192-288Zm-31.9 122C128.6 177.1 96 249.8 96 304c0 8.8-7.16 16-16 16s-16-7.2-16-16c0-63.56 36.7-143.3 71.22-186 5.562-6.906 15.64-7.969 22.5-2.406C164.6 121.1 165.7 131.2 160.1 138Z" style="fill:#3b82f6;fill-rule:nonzero" transform="matrix(.3 0 0 .3 401.4 2040.9)"/><path style="fill:none" d="M98.386 204.943h202.413V427.12H98.386z" transform="matrix(.80034 0 0 .9479 785.257 -77.265)"/><path d="M192 16C86 16 0 198 0 304s85.1 192 192 192c105.1 0 192-85.1 192-192 0-106-86.9-288-192-288Zm-31.9 122C128.6 177.1 96 249.8 96 304c0 8.8-7.16 16-16 16s-16-7.2-16-16c0-63.56 36.7-143.3 71.22-186 5.562-6.906 15.64-7.969 22.5-2.406C164.6 121.1 165.7 131.2 160.1 138Z" style="fill:#4338ca;fill-rule:nonzero" transform="matrix(.3 0 0 .3 887.4 145.5)"/><path style="fill:none" d="M98.386 204.943h202.413V427.12H98.386z" transform="matrix(.80034 0 0 .9479 623.257 133.335)"/><path d="M192 16C86 16 0 198 0 304s85.1 192 192 192c105.1 0 192-85.1 192-192 0-106-86.9-288-192-288Zm-31.9 122C128.6 177.1 96 249.8 96 304c0 8.8-7.16 16-16 16s-16-7.2-16-16c0-63.56 36.7-143.3 71.22-186 5.562-6.906 15.64-7.969 22.5-2.406C164.6 121.1 165.7 131.2 160.1 138Z" style="fill:#4338ca;fill-rule:nonzero" transform="matrix(.3 0 0 .3 725.4 356.1)"/><path style="fill:none" d="M98.386 204.943h202.413V427.12H98.386z" transform="matrix(.80034 0 0 .9479 461.257 343.935)"/><path d="M192 16C86 16 0 198 0 304s85.1 192 192 192c105.1 0 192-85.1 192-192 0-106-86.9-288-192-288Zm-31.9 122C128.6 177.1 96 249.8 96 304c0 8.8-7.16 16-16 16s-16-7.2-16-16c0-63.56 36.7-143.3 71.22-186 5.562-6.906 15.64-7.969 22.5-2.406C164.6 121.1 165.7 131.2 160.1 138Z" style="fill:#4338ca;fill-rule:nonzero" transform="matrix(.3 0 0 .3 563.4 566.7)"/><path style="fill:none" d="M98.386 204.943h202.413V427.12H98.386z" transform="matrix(.80034 0 0 .9479 299.257 554.535)"/><path d="M192 16C86 16 0 198 0 304s85.1 192 192 192c105.1 0 192-85.1 192-192 0-106-86.9-288-192-288Zm-31.9 122C128.6 177.1 96 249.8 96 304c0 8.8-7.16 16-16 16s-16-7.2-16-16c0-63.56 36.7-143.3 71.22-186 5.562-6.906 15.64-7.969 22.5-2.406C164.6 121.1 165.7 131.2 160.1 138Z" style="fill:#4338ca;fill-rule:nonzero" transform="matrix(.3 0 0 .3 401.4 777.3)"/><path style="fill:none" d="M98.386 204.943h202.413V427.12H98.386z" transform="matrix(.80034 0 0 .9479 137.257 765.135)"/><path d="M192 16C86 16 0 198 0 304s85.1 192 192 192c105.1 0 192-85.1 192-192 0-106-86.9-288-192-288Zm-31.9 122C128.6 177.1 96 249.8 96 304c0 8.8-7.16 16-16 16s-16-7.2-16-16c0-63.56 36.7-143.3 71.22-186 5.562-6.906 15.64-7.969 22.5-2.406C164.6 121.1 165.7 131.2 160.1 138Z" style="fill:#4338ca;fill-rule:nonzero" transform="matrix(.3 0 0 .3 239.4 987.9)"/><path style="fill:none" d="M98.386 204.943h202.413V427.12H98.386z" transform="matrix(.80034 0 0 .9479 -24.743 975.735)"/><path d="M192 16C86 16 0 198 0 304s85.1 192 192 192c105.1 0 192-85.1 192-192 0-106-86.9-288-192-288Zm-31.9 122C128.6 177.1 96 249.8 96 304c0 8.8-7.16 16-16 16s-16-7.2-16-16c0-63.56 36.7-143.3 71.22-186 5.562-6.906 15.64-7.969 22.5-2.406C164.6 121.1 165.7 131.2 160.1 138Z" style="fill:#4338ca;fill-rule:nonzero" transform="matrix(.3 0 0 .3 77.4 1198.5)"/><path style="fill:none" d="M98.386 204.943h202.413V427.12H98.386z" transform="matrix(.80034 0 0 .9479 785.257 1396.935)"/><path d="M192 16C86 16 0 198 0 304s85.1 192 192 192c105.1 0 192-85.1 192-192 0-106-86.9-288-192-288Zm-31.9 122C128.6 177.1 96 249.8 96 304c0 8.8-7.16 16-16 16s-16-7.2-16-16c0-63.56 36.7-143.3 71.22-186 5.562-6.906 15.64-7.969 22.5-2.406C164.6 121.1 165.7 131.2 160.1 138Z" style="fill:#4338ca;fill-rule:nonzero" transform="matrix(.3 0 0 .3 887.4 1619.7)"/><path style="fill:none" d="M98.386 204.943h202.413V427.12H98.386z" transform="matrix(.80034 0 0 .9479 623.257 1607.535)"/><path d="M192 16C86 16 0 198 0 304s85.1 192 192 192c105.1 0 192-85.1 192-192 0-106-86.9-288-192-288Zm-31.9 122C128.6 177.1 96 249.8 96 304c0 8.8-7.16 16-16 16s-16-7.2-16-16c0-63.56 36.7-143.3 71.22-186 5.562-6.906 15.64-7.969 22.5-2.406C164.6 121.1 165.7 131.2 160.1 138Z" style="fill:#4338ca;fill-rule:nonzero" transform="matrix(.3 0 0 .3 725.4 1830.3)"/><path style="fill:none" d="M98.386 204.943h202.413V427.12H98.386z" transform="matrix(.80034 0 0 .9479 461.257 1818.135)"/><path d="M192 16C86 16 0 198 0 304s85.1 192 192 192c105.1 0 192-85.1 192-192 0-106-86.9-288-192-288Zm-31.9 122C128.6 177.1 96 249.8 96 304c0 8.8-7.16 16-16 16s-16-7.2-16-16c0-63.56 36.7-143.3 71.22-186 5.562-6.906 15.64-7.969 22.5-2.406C164.6 121.1 165.7 131.2 160.1 138Z" style="fill:#4338ca;fill-rule:nonzero" transform="matrix(.3 0 0 .3 563.4 2040.9)"/><path style="fill:none" d="M98.386 204.943h202.413V427.12H98.386z" transform="matrix(.80034 0 0 .9479 785.257 133.335)"/><path d="M192 16C86 16 0 198 0 304s85.1 192 192 192c105.1 0 192-85.1 192-192 0-106-86.9-288-192-288Zm-31.9 122C128.6 177.1 96 249.8 96 304c0 8.8-7.16 16-16 16s-16-7.2-16-16c0-63.56 36.7-143.3 71.22-186 5.562-6.906 15.64-7.969 22.5-2.406C164.6 121.1 165.7 131.2 160.1 138Z" style="fill:#a855f7;fill-rule:nonzero" transform="matrix(.3 0 0 .3 887.4 356.1)"/><path style="fill:none" d="M98.386 204.943h202.413V427.12H98.386z" transform="matrix(.80034 0 0 .9479 623.257 343.935)"/><path d="M192 16C86 16 0 198 0 304s85.1 192 192 192c105.1 0 192-85.1 192-192 0-106-86.9-288-192-288Zm-31.9 122C128.6 177.1 96 249.8 96 304c0 8.8-7.16 16-16 16s-16-7.2-16-16c0-63.56 36.7-143.3 71.22-186 5.562-6.906 15.64-7.969 22.5-2.406C164.6 121.1 165.7 131.2 160.1 138Z" style="fill:#a855f7;fill-rule:nonzero" transform="matrix(.3 0 0 .3 725.4 566.7)"/><path style="fill:none" d="M98.386 204.943h202.413V427.12H98.386z" transform="matrix(.80034 0 0 .9479 461.257 554.535)"/><path d="M192 16C86 16 0 198 0 304s85.1 192 192 192c105.1 0 192-85.1 192-192 0-106-86.9-288-192-288Zm-31.9 122C128.6 177.1 96 249.8 96 304c0 8.8-7.16 16-16 16s-16-7.2-16-16c0-63.56 36.7-143.3 71.22-186 5.562-6.906 15.64-7.969 22.5-2.406C164.6 121.1 165.7 131.2 160.1 138Z" style="fill:#a855f7;fill-rule:nonzero" transform="matrix(.3 0 0 .3 563.4 777.3)"/><path style="fill:none" d="M98.386 204.943h202.413V427.12H98.386z" transform="matrix(.80034 0 0 .9479 299.257 765.135)"/><path d="M192 16C86 16 0 198 0 304s85.1 192 192 192c105.1 0 192-85.1 192-192 0-106-86.9-288-192-288Zm-31.9 122C128.6 177.1 96 249.8 96 304c0 8.8-7.16 16-16 16s-16-7.2-16-16c0-63.56 36.7-143.3 71.22-186 5.562-6.906 15.64-7.969 22.5-2.406C164.6 121.1 165.7 131.2 160.1 138Z" style="fill:#a855f7;fill-rule:nonzero" transform="matrix(.3 0 0 .3 401.4 987.9)"/><path style="fill:none" d="M98.386 204.943h202.413V427.12H98.386z" transform="matrix(.80034 0 0 .9479 137.257 975.735)"/><path d="M192 16C86 16 0 198 0 304s85.1 192 192 192c105.1 0 192-85.1 192-192 0-106-86.9-288-192-288Zm-31.9 122C128.6 177.1 96 249.8 96 304c0 8.8-7.16 16-16 16s-16-7.2-16-16c0-63.56 36.7-143.3 71.22-186 5.562-6.906 15.64-7.969 22.5-2.406C164.6 121.1 165.7 131.2 160.1 138Z" style="fill:#a855f7;fill-rule:nonzero" transform="matrix(.3 0 0 .3 239.4 1198.5)"/><path style="fill:none" d="M98.386 204.943h202.413V427.12H98.386z" transform="matrix(.80034 0 0 .9479 -24.743 1186.335)"/><path d="M192 16C86 16 0 198 0 304s85.1 192 192 192c105.1 0 192-85.1 192-192 0-106-86.9-288-192-288Zm-31.9 122C128.6 177.1 96 249.8 96 304c0 8.8-7.16 16-16 16s-16-7.2-16-16c0-63.56 36.7-143.3 71.22-186 5.562-6.906 15.64-7.969 22.5-2.406C164.6 121.1 165.7 131.2 160.1 138Z" style="fill:#a855f7;fill-rule:nonzero" transform="matrix(.3 0 0 .3 77.4 1409.1)"/><path style="fill:none" d="M98.386 204.943h202.413V427.12H98.386z" transform="matrix(.80034 0 0 .9479 785.257 1607.535)"/><path d="M192 16C86 16 0 198 0 304s85.1 192 192 192c105.1 0 192-85.1 192-192 0-106-86.9-288-192-288Zm-31.9 122C128.6 177.1 96 249.8 96 304c0 8.8-7.16 16-16 16s-16-7.2-16-16c0-63.56 36.7-143.3 71.22-186 5.562-6.906 15.64-7.969 22.5-2.406C164.6 121.1 165.7 131.2 160.1 138Z" style="fill:#a855f7;fill-rule:nonzero" transform="matrix(.3 0 0 .3 887.4 1830.3)"/><path style="fill:none" d="M98.386 204.943h202.413V427.12H98.386z" transform="matrix(.80034 0 0 .9479 623.257 1818.135)"/><path d="M192 16C86 16 0 198 0 304s85.1 192 192 192c105.1 0 192-85.1 192-192 0-106-86.9-288-192-288Zm-31.9 122C128.6 177.1 96 249.8 96 304c0 8.8-7.16 16-16 16s-16-7.2-16-16c0-63.56 36.7-143.3 71.22-186 5.562-6.906 15.64-7.969 22.5-2.406C164.6 121.1 165.7 131.2 160.1 138Z" style="fill:#a855f7;fill-rule:nonzero" transform="matrix(.3 0 0 .3 725.4 2040.9)"/></svg>